<mxfile host="app.diagrams.net" modified="2023-06-14T08:06:43.248Z" agent="Mozilla/5.0 (Windows NT 10.0; Win64; x64) AppleWebKit/537.36 (KHTML, like Gecko) Chrome/109.0.0.0 Safari/537.36" etag="IlhusdggIpsTX4yvQCqJ" version="21.3.8" type="device">
  <diagram id="C5RBs43oDa-KdzZeNtuy" name="Page-1">
    <mxGraphModel dx="880" dy="395" grid="1" gridSize="10" guides="1" tooltips="1" connect="1" arrows="1" fold="1" page="1" pageScale="1" pageWidth="827" pageHeight="1169" math="0" shadow="0">
      <root>
        <mxCell id="WIyWlLk6GJQsqaUBKTNV-0" />
        <mxCell id="WIyWlLk6GJQsqaUBKTNV-1" parent="WIyWlLk6GJQsqaUBKTNV-0" />
        <mxCell id="Vaix3iX374HJCUazJmEo-0" value="&lt;b&gt;Client&lt;/b&gt;" style="html=1;" parent="WIyWlLk6GJQsqaUBKTNV-1" vertex="1">
          <mxGeometry x="90" y="50" width="100" height="40" as="geometry" />
        </mxCell>
        <mxCell id="Vaix3iX374HJCUazJmEo-9" value="CoffeeProductComponent" style="swimlane;fontStyle=3;childLayout=stackLayout;horizontal=1;startSize=26;fillColor=none;horizontalStack=0;resizeParent=1;resizeParentMax=0;resizeLast=0;collapsible=1;marginBottom=0;" parent="WIyWlLk6GJQsqaUBKTNV-1" vertex="1">
          <mxGeometry x="274" y="80" width="176" height="160" as="geometry" />
        </mxCell>
        <mxCell id="Vaix3iX374HJCUazJmEo-10" value="+ get_name(): BaseCoffee" style="text;strokeColor=none;fillColor=none;align=left;verticalAlign=top;spacingLeft=4;spacingRight=4;overflow=hidden;rotatable=0;points=[[0,0.5],[1,0.5]];portConstraint=eastwest;" parent="Vaix3iX374HJCUazJmEo-9" vertex="1">
          <mxGeometry y="26" width="176" height="26" as="geometry" />
        </mxCell>
        <mxCell id="Vaix3iX374HJCUazJmEo-11" value="+ cost(): BaseCoffee" style="text;strokeColor=none;fillColor=none;align=left;verticalAlign=top;spacingLeft=4;spacingRight=4;overflow=hidden;rotatable=0;points=[[0,0.5],[1,0.5]];portConstraint=eastwest;" parent="Vaix3iX374HJCUazJmEo-9" vertex="1">
          <mxGeometry y="52" width="176" height="28" as="geometry" />
        </mxCell>
        <mxCell id="Vaix3iX374HJCUazJmEo-12" value="+ add_product(BaseCoffee)&#xa;&#xa;+remove_product(BaseCoffee)&#xa;+ clear_product(): List" style="text;strokeColor=none;fillColor=none;align=left;verticalAlign=top;spacingLeft=4;spacingRight=4;overflow=hidden;rotatable=0;points=[[0,0.5],[1,0.5]];portConstraint=eastwest;" parent="Vaix3iX374HJCUazJmEo-9" vertex="1">
          <mxGeometry y="80" width="176" height="80" as="geometry" />
        </mxCell>
        <mxCell id="Vaix3iX374HJCUazJmEo-13" value="Coffee" style="swimlane;fontStyle=1;align=center;verticalAlign=top;childLayout=stackLayout;horizontal=1;startSize=26;horizontalStack=0;resizeParent=1;resizeParentMax=0;resizeLast=0;collapsible=1;marginBottom=0;" parent="WIyWlLk6GJQsqaUBKTNV-1" vertex="1">
          <mxGeometry x="120" y="330" width="200" height="66" as="geometry" />
        </mxCell>
        <mxCell id="Vaix3iX374HJCUazJmEo-15" value="" style="line;strokeWidth=1;fillColor=none;align=left;verticalAlign=middle;spacingTop=-1;spacingLeft=3;spacingRight=3;rotatable=0;labelPosition=right;points=[];portConstraint=eastwest;" parent="Vaix3iX374HJCUazJmEo-13" vertex="1">
          <mxGeometry y="26" width="200" height="14" as="geometry" />
        </mxCell>
        <mxCell id="Vaix3iX374HJCUazJmEo-16" value="+ cost(): CoffeeProductComponent" style="text;strokeColor=none;fillColor=none;align=left;verticalAlign=top;spacingLeft=4;spacingRight=4;overflow=hidden;rotatable=0;points=[[0,0.5],[1,0.5]];portConstraint=eastwest;" parent="Vaix3iX374HJCUazJmEo-13" vertex="1">
          <mxGeometry y="40" width="200" height="26" as="geometry" />
        </mxCell>
        <mxCell id="Vaix3iX374HJCUazJmEo-20" value="CoffeeProduct" style="swimlane;fontStyle=1;childLayout=stackLayout;horizontal=1;startSize=26;fillColor=none;horizontalStack=0;resizeParent=1;resizeParentMax=0;resizeLast=0;collapsible=1;marginBottom=0;" parent="WIyWlLk6GJQsqaUBKTNV-1" vertex="1">
          <mxGeometry x="440" y="330" width="140" height="80" as="geometry" />
        </mxCell>
        <mxCell id="Vaix3iX374HJCUazJmEo-21" value="+ cost()" style="text;strokeColor=none;fillColor=none;align=left;verticalAlign=top;spacingLeft=4;spacingRight=4;overflow=hidden;rotatable=0;points=[[0,0.5],[1,0.5]];portConstraint=eastwest;" parent="Vaix3iX374HJCUazJmEo-20" vertex="1">
          <mxGeometry y="26" width="140" height="26" as="geometry" />
        </mxCell>
        <mxCell id="Vaix3iX374HJCUazJmEo-22" value="+ get_main()" style="text;strokeColor=none;fillColor=none;align=left;verticalAlign=top;spacingLeft=4;spacingRight=4;overflow=hidden;rotatable=0;points=[[0,0.5],[1,0.5]];portConstraint=eastwest;" parent="Vaix3iX374HJCUazJmEo-20" vertex="1">
          <mxGeometry y="52" width="140" height="28" as="geometry" />
        </mxCell>
        <mxCell id="Vaix3iX374HJCUazJmEo-24" value="" style="endArrow=open;endFill=1;endSize=12;html=1;rounded=0;exitX=0.5;exitY=1;exitDx=0;exitDy=0;entryX=0;entryY=0.5;entryDx=0;entryDy=0;" parent="WIyWlLk6GJQsqaUBKTNV-1" source="Vaix3iX374HJCUazJmEo-0" target="Vaix3iX374HJCUazJmEo-10" edge="1">
          <mxGeometry width="160" relative="1" as="geometry">
            <mxPoint x="330" y="380" as="sourcePoint" />
            <mxPoint x="490" y="380" as="targetPoint" />
            <Array as="points">
              <mxPoint x="140" y="120" />
            </Array>
          </mxGeometry>
        </mxCell>
        <mxCell id="Vaix3iX374HJCUazJmEo-25" value="" style="endArrow=block;endSize=16;endFill=0;html=1;rounded=0;entryX=0.336;entryY=1.02;entryDx=0;entryDy=0;entryPerimeter=0;exitX=0.5;exitY=0;exitDx=0;exitDy=0;" parent="WIyWlLk6GJQsqaUBKTNV-1" source="Vaix3iX374HJCUazJmEo-13" target="Vaix3iX374HJCUazJmEo-12" edge="1">
          <mxGeometry x="0.25" y="50" width="160" relative="1" as="geometry">
            <mxPoint x="210" y="450" as="sourcePoint" />
            <mxPoint x="370" y="450" as="targetPoint" />
            <mxPoint as="offset" />
          </mxGeometry>
        </mxCell>
        <mxCell id="Vaix3iX374HJCUazJmEo-26" value="" style="endArrow=block;endSize=16;endFill=0;html=1;rounded=0;exitX=0.25;exitY=0;exitDx=0;exitDy=0;" parent="WIyWlLk6GJQsqaUBKTNV-1" source="Vaix3iX374HJCUazJmEo-20" edge="1" target="Vaix3iX374HJCUazJmEo-12">
          <mxGeometry x="0.25" y="50" width="160" relative="1" as="geometry">
            <mxPoint x="210" y="340" as="sourcePoint" />
            <mxPoint x="360" y="210" as="targetPoint" />
            <mxPoint as="offset" />
          </mxGeometry>
        </mxCell>
        <mxCell id="Vaix3iX374HJCUazJmEo-27" value="" style="endArrow=diamondThin;endFill=0;endSize=24;html=1;rounded=0;exitX=1.014;exitY=0.143;exitDx=0;exitDy=0;exitPerimeter=0;entryX=0.5;entryY=0;entryDx=0;entryDy=0;" parent="WIyWlLk6GJQsqaUBKTNV-1" source="Vaix3iX374HJCUazJmEo-11" target="Vaix3iX374HJCUazJmEo-20" edge="1">
          <mxGeometry width="160" relative="1" as="geometry">
            <mxPoint x="330" y="380" as="sourcePoint" />
            <mxPoint x="490" y="380" as="targetPoint" />
            <Array as="points">
              <mxPoint x="510" y="136" />
            </Array>
          </mxGeometry>
        </mxCell>
        <mxCell id="Vaix3iX374HJCUazJmEo-28" value="+children" style="text;html=1;align=center;verticalAlign=middle;resizable=0;points=[];autosize=1;strokeColor=none;fillColor=none;" parent="WIyWlLk6GJQsqaUBKTNV-1" vertex="1">
          <mxGeometry x="450" y="120" width="60" height="20" as="geometry" />
        </mxCell>
        <mxCell id="196x2PL0TJWZQYT-rs5B-0" value="BaseCoffee" style="swimlane;fontStyle=1;align=center;verticalAlign=top;childLayout=stackLayout;horizontal=1;startSize=26;horizontalStack=0;resizeParent=1;resizeParentMax=0;resizeLast=0;collapsible=1;marginBottom=0;" vertex="1" parent="WIyWlLk6GJQsqaUBKTNV-1">
          <mxGeometry x="600" y="37" width="160" height="92" as="geometry" />
        </mxCell>
        <mxCell id="196x2PL0TJWZQYT-rs5B-1" value="" style="line;strokeWidth=1;fillColor=none;align=left;verticalAlign=middle;spacingTop=-1;spacingLeft=3;spacingRight=3;rotatable=0;labelPosition=right;points=[];portConstraint=eastwest;" vertex="1" parent="196x2PL0TJWZQYT-rs5B-0">
          <mxGeometry y="26" width="160" height="14" as="geometry" />
        </mxCell>
        <mxCell id="196x2PL0TJWZQYT-rs5B-2" value="+ cost()" style="text;strokeColor=none;fillColor=none;align=left;verticalAlign=top;spacingLeft=4;spacingRight=4;overflow=hidden;rotatable=0;points=[[0,0.5],[1,0.5]];portConstraint=eastwest;" vertex="1" parent="196x2PL0TJWZQYT-rs5B-0">
          <mxGeometry y="40" width="160" height="26" as="geometry" />
        </mxCell>
        <mxCell id="196x2PL0TJWZQYT-rs5B-4" value="+ get_main()" style="text;strokeColor=none;fillColor=none;align=left;verticalAlign=top;spacingLeft=4;spacingRight=4;overflow=hidden;rotatable=0;points=[[0,0.5],[1,0.5]];portConstraint=eastwest;" vertex="1" parent="196x2PL0TJWZQYT-rs5B-0">
          <mxGeometry y="66" width="160" height="26" as="geometry" />
        </mxCell>
        <mxCell id="196x2PL0TJWZQYT-rs5B-3" value="" style="endArrow=open;endFill=1;endSize=12;html=1;rounded=0;entryX=0.013;entryY=0.429;entryDx=0;entryDy=0;entryPerimeter=0;exitX=1.006;exitY=0.085;exitDx=0;exitDy=0;exitPerimeter=0;" edge="1" parent="WIyWlLk6GJQsqaUBKTNV-1" source="Vaix3iX374HJCUazJmEo-9" target="196x2PL0TJWZQYT-rs5B-1">
          <mxGeometry width="160" relative="1" as="geometry">
            <mxPoint x="377" y="80" as="sourcePoint" />
            <mxPoint x="284" y="129" as="targetPoint" />
            <Array as="points">
              <mxPoint x="590" y="70" />
            </Array>
          </mxGeometry>
        </mxCell>
      </root>
    </mxGraphModel>
  </diagram>
</mxfile>
